<svg width="32" height="32" viewBox="0 0 32 32" fill="none" xmlns="http://www.w3.org/2000/svg">
<rect width="32" height="32" fill="#E5E5E5"/>
<path d="M16 6C10.48 6 6 10.48 6 16C6 21.52 10.48 26 16 26C21.52 26 26 21.52 26 16C26 10.48 21.52 6 16 6Z" fill="#A7C7E7"/>
<path d="M12 14C10.9 14 10 13.1 10 12C10 10.9 10.9 10 12 10C13.1 10 14 10.9 14 12C14 13.1 13.1 14 12 14Z" fill="black"/>
<path d="M20 14C18.9 14 18 13.1 18 12C18 10.9 18.9 10 20 10C21.1 10 22 10.9 22 12C22 13.1 21.1 14 20 14Z" fill="black"/>
<path d="M16 22C13.79 22 12 20.21 12 18H20C20 20.21 18.21 22 16 22Z" fill="black"/>
<path d="M16 2C13.79 2 12 3.79 12 6H20C20 3.79 18.21 2 16 2Z" fill="#A7C7E7"/>
</svg>
